<svg width="390" height="480" viewBox="0 0 390 480" fill="none" xmlns="http://www.w3.org/2000/svg">
<g clip-path="url(#clip0_1_10)">
<path d="M323.531 63.7969C311.625 47.4844 292.219 37.5 271.125 37.5H258.441C255.143 37.5 251.842 37.7582 248.569 38.2673C237 29.3719 222.75 24.375 207.656 24.375H195C191.272 24.375 187.59 24.721 183.984 25.3913C173.156 10.0406 155.25 0 135 0H120C86.9062 0 60 26.8594 60 60V106.603L29.1 134.344C10.5938 150 0 173.062 0 197.719V271.753C0 301.847 16.0406 329.55 41.8594 344.053L75 362.719V457.5C75 469.969 85.0313 480 96.6563 480C108.281 480 120 469.969 120 457.5V335.719C118.766 335.105 117.398 334.856 116.192 334.182L63.8981 304.801C52.2375 298.312 45 285.562 45 271.781V197.719C45 186.178 49.9509 175.434 58.5938 168.291L75 153.562V195C75 203.25 81.75 210 90 210C98.25 210 105 203.291 105 195V60C105 51.7238 111.739 45 120 45H135C143.25 45 150 51.7219 150 60V75C150 83.9794 157.446 90.0375 165.141 90.0375C171.171 90.0375 176.681 86.2706 178.95 80.5031C179.344 79.5375 184.031 69.375 195 69.375H207.684C227.344 69.375 224.484 87.7313 239.812 87.7313C247.478 87.7313 249.094 82.4963 258.45 82.4963H271.134C295.078 82.4963 288.262 108.962 307.378 108.962C307.525 108.962 307.671 108.96 307.816 108.955L321.938 108.75C333.844 108.75 345 119.719 345 133.125V255C345 288.891 326.681 318.112 300 333.459V457.491C300 469.969 310.031 480 321.656 480C333.281 480 345 469.969 345 457.5V356.156C373.219 330.75 390 294 390 255V133.125C390 95.7188 360.75 65.1 323.531 63.7969Z" fill="white" fill-opacity="0.6"/>
</g>
<defs>
<clipPath id="clip0_1_10">
<rect width="390" height="480" fill="white"/>
</clipPath>
</defs>
</svg>
