<svg width="450" height="480" viewBox="0 0 450 480" fill="none" xmlns="http://www.w3.org/2000/svg">
<g clip-path="url(#clip0_1_12)">
<path d="M382.5 75C378.756 75 375.084 75.3058 371.503 75.8954C362.516 49.1673 337.219 29.8548 307.5 29.8548C301.447 29.8548 295.575 30.6568 289.988 32.1582C278.062 12.8719 256.781 0 232.5 0C208.219 0 186.844 12.9281 174.938 32.2875C169.406 30.7969 163.594 30 157.594 30C120.375 30 90.0094 60.2812 90.0094 97.5V211.5C85.0969 210.562 80.0719 210 75.0094 210C75.0069 210 75.0118 210 75.0094 210C34.1531 210 0 243 0 285.094C0 304.116 7.08562 322.144 20.1187 336.141L96.2906 417.928C133.031 457.406 185.062 480 238.969 480H269.981C369.281 480 450 399.281 450 300V142.5C450 105.281 419.719 75 382.5 75ZM405 300C405 374.447 344.447 435 270.844 435H238.969C197.334 435 157.566 417.694 129.188 387.225L54.4125 306.947C48.5981 300.704 45.5944 292.509 45.5944 285.291C45.5944 264.516 62.9663 255.853 74.985 255.853C83.01 255.853 91.0163 259.056 96.9412 265.397L121.991 292.294C123.562 293.156 125.531 293.812 127.406 293.812C131.256 293.812 134.966 290.839 134.966 286.298V97.5C134.966 85.0781 145.044 75 156.622 75C169.044 75 178.279 85.0781 178.279 97.5V240C180 248.25 186.75 255 195 255C203.25 255 209.156 248.285 209.156 240.844L210 67.5C210 55.0781 220.078 45 231.656 45C244.078 45 253.313 55.0781 253.313 67.5V240C255 248.25 261.75 255 270 255C278.25 255 284.991 248.284 284.991 240.844L284.998 98.1562C284.998 85.7344 295.076 75.6562 306.654 75.6562C319.076 75.6562 328.31 85.7344 328.31 98.1562V240.844C330 248.25 336.75 255 345 255C353.25 255 359.156 248.285 359.156 240.844V142.5C359.156 130.078 369.234 120 380.812 120C393.234 120 402.469 130.078 402.469 142.5V300H405Z" fill="white" fill-opacity="0.6"/>
</g>
<defs>
<clipPath id="clip0_1_12">
<rect width="450" height="480" fill="white"/>
</clipPath>
</defs>
</svg>
