<svg width="480" height="390" viewBox="0 0 480 390" fill="none" xmlns="http://www.w3.org/2000/svg">
<g clip-path="url(#clip0_1_14)">
<path d="M253.219 390H345.019C419.438 390 480 331.031 480 258.469V157.312C480 135.328 474.276 113.503 463.444 94.1906L434.053 41.8313C419.531 16.0313 391.031 0 361.781 0H317.747C292.781 0 269.409 10.9031 253.622 29.9344L239.128 47.475L119.344 4.1625C111.562 1.36875 103.594 0.0468779 95.7188 0.0468779C67.575 0.0468779 40.9969 16.9781 30.6469 44.1937C14.1187 87 43.3031 121.875 71.9531 132.094L73.965 132.81L64.4906 133.5C28.3219 135.938 0 166.125 0 201.844C0 239.062 31.1906 269.428 69.3 269.428C70.9359 269.428 72.5822 269.371 74.2388 269.256L157.479 263.505V271.137C157.479 291.865 167.37 311.553 183.776 324.331C185.062 360.75 215.812 390 253.219 390ZM252.281 345C238.838 345 227.906 334.659 227.906 321.919C227.906 321.919 227.944 308.503 227.944 308.128C227.944 301.665 224.098 294.816 217.941 292.763C208.2 289.481 201.647 280.781 201.647 271.144V258.459C201.647 242.541 214.491 243.084 214.491 230.437C214.491 221.922 207.561 215.475 199.528 215.475C199.187 215.475 198.843 215.487 198.498 215.51C198.498 215.51 69.0294 224.421 68.4669 224.421C55.0418 224.421 44.1575 214.071 44.1575 201.462C44.1575 189.012 54.1887 179.206 66.7512 178.362L219.751 167.787C222.258 167.61 233.739 165.062 233.739 152.618C233.739 146.36 229.722 140.824 223.754 138.696L87.0375 89.7188C80.0531 86.3438 71.2219 80.0625 71.2219 68.1562C71.2219 57.7125 79.8928 45.0375 95.5688 45.0375C98.4216 45.0375 101.326 45.517 104.162 46.5281L323.631 126.244C325.319 126.861 327.047 127.153 328.746 127.153C337.146 127.153 343.746 120.238 343.746 112.997C343.746 106.89 339.932 101.1 333.818 98.897L273.058 76.8938L287.439 59.4938C295.5 49.9688 306.188 45 317.719 45H361.753C375.6 45 388.266 52.2366 394.819 63.9L424.219 116.25C431.279 128.822 435.019 143.025 435.019 157.322V258.478C435.019 306.206 394.65 345.019 345.019 345.019H252.281V345Z" fill="white" fill-opacity="0.6"/>
</g>
<defs>
<clipPath id="clip0_1_14">
<rect width="480" height="390" fill="white"/>
</clipPath>
</defs>
</svg>
